<svg xmlns="http://www.w3.org/2000/svg" width="30" height="30" viewBox="0 0 30 30">
<path fill="#778089" d="M15,26.25 C21.2132034,26.25 26.25,21.2132034 26.25,15 C26.25,8.78679656 21.2132034,3.75 15,3.75 C8.78679656,3.75 3.75,8.78679656 3.75,15 C3.75,21.2132034 8.78679656,26.25 15,26.25 Z M15,2.5 C21.9035594,2.5 27.5,8.09644063 27.5,15 C27.5,21.9035594 21.9035594,27.5 15,27.5 C8.09644063,27.5 2.5,21.9035594 2.5,15 C2.5,8.09644063 8.09644063,2.5 15,2.5 Z M13.9202461,12.4374998 L12.7266617,12.4374998 L12.7266617,13.6874998 L13.9202461,13.6874998 C14.2370886,13.6874998 14.4888306,13.9395774 14.4888306,14.2544969 L14.4888306,14.2544969 L14.4888306,18.7539489 L12.5,18.7539489 L12.5,20.0039489 L17.5,20.0039489 L17.5,18.7539489 L15.7388306,18.7539489 L15.7388306,14.2544969 C15.7388306,13.249594 14.9278177,12.4374998 13.9202461,12.4374998 L13.9202461,12.4374998 Z M15,8.75 C14.3096441,8.75 13.75,9.30964406 13.75,10 C13.75,10.6903559 14.3096441,11.25 15,11.25 C15.6903559,11.25 16.25,10.6903559 16.25,10 C16.25,9.30964406 15.6903559,8.75 15,8.75 Z"/>
</svg>
