<svg xmlns="http://www.w3.org/2000/svg" width="30" height="30" viewBox="0 0 30 30">
<path fill="#778089" d="M2.5,6.25015437 C2.49848514,5.25508779 2.89310121,4.30033951 3.59672036,3.59672036 C4.30033951,2.89310121 5.25508779,2.49848514 6.25015437,2.5 L23.7498544,2.5 C24.744921,2.49848514 25.6996692,2.89310121 26.4032884,3.59672036 C27.1069075,4.30033951 27.5015236,5.25508779 27.5,6.25015437 L27.5,23.7498544 C27.5015236,24.744921 27.1069075,25.6996692 26.4032884,26.4032884 C25.6996692,27.1069075 24.744921,27.5015236 23.7498544,27.5 L6.25015437,27.5 C5.25508779,27.5015236 4.30033951,27.1069075 3.59672036,26.4032884 C2.89310121,25.6996692 2.49848514,24.744921 2.5,23.7498544 L2.5,6.25015437 Z M3.74999783,6.25015437 L3.74999783,23.7498544 C3.74848638,24.4133996 4.01140679,25.0502049 4.48060533,25.5194034 C4.94980387,25.9886019 5.58660917,26.2515224 6.25015437,26.2500109 L23.7498544,26.2500109 C24.4133996,26.2515224 25.0502049,25.9886019 25.5194034,25.5194034 C25.9886019,25.0502049 26.2515224,24.4133996 26.2500109,23.7498544 L26.2500109,6.25015437 C26.2515224,5.58660917 25.9886019,4.94980387 25.5194034,4.48060533 C25.0502049,4.01140679 24.4133996,3.74848638 23.7498544,3.74999783 L6.25015437,3.74999783 C5.58660917,3.74848638 4.94980387,4.01140679 4.48060533,4.48060533 C4.01140679,4.94980387 3.74848638,5.58660917 3.74999783,6.25015437 Z M10.8333333,17.5 L11.6666667,12.5 L9.375,12.5 L9.375,11.25 L11.875,11.25 L12.5,7.5 L13.75,7.5 L13.125,11.25 L18.125,11.25 L18.75,7.5 L20,7.5 L19.375,11.25 L21.875,11.25 L21.875,12.5 L19.1666667,12.5 L18.3333333,17.5 L20.625,17.5 L20.625,18.75 L18.125,18.75 L17.5,22.5 L16.25,22.5 L16.875,18.75 L11.875,18.75 L11.25,22.5 L10,22.5 L10.625,18.75 L8.125,18.75 L8.125,17.5 L10.8333333,17.5 Z M12.0833333,17.5 L17.0833333,17.5 L17.9166667,12.5 L12.9166667,12.5 L12.0833333,17.5 L12.0833333,17.5 Z"/>
</svg>
