<svg xmlns="http://www.w3.org/2000/svg" width="30" height="30" viewBox="0 0 30 30">
<path fill="#778089" d="M20.4686153,22.3580397 L21.1773678,21.8039807 L23.7848323,23.3094011 L26.451499,18.6905989 L23.8464255,17.1865591 L23.9699188,16.2973308 C24.0292216,15.870314 24.0591941,15.4372332 24.0591941,15 C24.0591941,14.5627668 24.0292216,14.129686 23.9699188,13.7026692 L23.8464255,12.8134409 L26.451499,11.3094011 L23.7848323,6.69059892 L21.1773678,8.19601927 L20.4686153,7.64196028 C19.7848329,7.10742124 19.0301123,6.67027526 18.2255743,6.34460653 L17.3925275,6.00739776 L17.3925275,3 L12.0591941,3 L12.0591941,6.00739776 L11.2261474,6.34460653 C10.4216093,6.67027526 9.66688877,7.10742124 8.98310628,7.64196028 L8.27435383,8.19601927 L5.6668893,6.69059892 L3.00022263,11.3094011 L5.6052961,12.8134409 L5.48180279,13.7026692 C5.4225,14.129686 5.39252748,14.5627668 5.39252748,15 C5.39252748,15.4372332 5.4225,15.870314 5.48180279,16.2973308 L5.6052961,17.1865591 L3.00022263,18.6905989 L5.6668893,23.3094011 L8.27435383,21.8039807 L8.98310628,22.3580397 C9.66688877,22.8925788 10.4216093,23.3297247 11.2261474,23.6553935 L12.0591941,23.9926022 L12.0591941,27 L17.3925275,27 L17.3925275,23.9926022 L18.2255743,23.6553935 C19.0301123,23.3297247 19.7848329,22.8925788 20.4686153,22.3580397 Z M18.7258608,24.8913106 L18.7258608,27 C18.7258608,27.7363797 18.1289071,28.3333333 17.3925275,28.3333333 L12.0591941,28.3333333 C11.3228145,28.3333333 10.7258608,27.7363797 10.7258608,27 L10.7258608,24.8913106 C9.79941047,24.516293 8.93764028,24.0148932 8.16192901,23.4084899 L6.33355597,24.4641016 C5.69583247,24.8322914 4.8803786,24.6137912 4.51218876,23.9760677 L1.8455221,19.3572656 C1.47733226,18.7195421 1.69583247,17.9040882 2.33355597,17.5358984 L4.16114428,16.4807398 C4.09393452,15.9967879 4.05919415,15.502451 4.05919415,15 C4.05919415,14.497549 4.09393452,14.0032121 4.16114428,13.5192602 L2.33355597,12.4641016 C1.69583247,12.0959118 1.47733226,11.2804579 1.8455221,10.6427344 L4.51218876,6.02393226 C4.8803786,5.38620876 5.69583247,5.16770855 6.33355597,5.53589838 L8.16192901,6.59151005 C8.93764028,5.98510677 9.79941047,5.48370696 10.7258608,5.1086894 L10.7258608,3 C10.7258608,2.26362033 11.3228145,1.66666667 12.0591941,1.66666667 L17.3925275,1.66666667 C18.1289071,1.66666667 18.7258608,2.26362033 18.7258608,3 L18.7258608,5.1086894 C19.6523112,5.48370696 20.5140813,5.98510677 21.2897926,6.59151005 L23.1181657,5.53589838 C23.7558892,5.16770855 24.571343,5.38620876 24.9395329,6.02393226 L27.6061995,10.6427344 C27.9743894,11.2804579 27.7558892,12.0959118 27.1181657,12.4641016 L25.2905773,13.5192602 C25.3577871,14.0032121 25.3925275,14.497549 25.3925275,15 C25.3925275,15.502451 25.3577871,15.9967879 25.2905773,16.4807398 L27.1181657,17.5358984 C27.7558892,17.9040882 27.9743894,18.7195421 27.6061995,19.3572656 L24.9395329,23.9760677 C24.571343,24.6137912 23.7558892,24.8322914 23.1181657,24.4641016 L21.2897926,23.4084899 C20.5140813,24.0148932 19.6523112,24.516293 18.7258608,24.8913106 Z M14.7258608,19 C16.9349998,19 18.7258608,17.209139 18.7258608,15 C18.7258608,12.790861 16.9349998,11 14.7258608,11 C12.5167218,11 10.7258608,12.790861 10.7258608,15 C10.7258608,17.209139 12.5167218,19 14.7258608,19 Z M14.7258608,20.3333333 C11.7803421,20.3333333 9.39252748,17.9455187 9.39252748,15 C9.39252748,12.0544813 11.7803421,9.66666667 14.7258608,9.66666667 C17.6713795,9.66666667 20.0591941,12.0544813 20.0591941,15 C20.0591941,17.9455187 17.6713795,20.3333333 14.7258608,20.3333333 Z"/>
</svg>
