<svg xmlns="http://www.w3.org/2000/svg" width="30" height="30" viewBox="0 0 30 30">
<path fill="#778089" d="M22.9549513,22.9549513 C24.9908009,20.9191017 26.25,18.1066017 26.25,15 C26.25,11.8933983 24.9908009,9.08089828 22.9549513,7.04504871 L23.8388348,6.16116524 C26.1008898,8.42322031 27.5,11.5482203 27.5,15 C27.5,18.4517797 26.1008898,21.5767797 23.8388348,23.8388348 L22.9549513,22.9549513 L22.9549513,22.9549513 Z M7.04504871,7.04504871 C5.00919914,9.08089828 3.75,11.8933983 3.75,15 C3.75,18.1066017 5.00919914,20.9191017 7.04504871,22.9549513 L6.16116524,23.8388348 C3.89911016,21.5767797 2.5,18.4517797 2.5,15 C2.5,11.5482203 3.89911016,8.42322031 6.16116524,6.16116524 L7.04504871,7.04504871 L7.04504871,7.04504871 Z M19.4194174,19.4194174 C20.5504449,18.2883898 21.25,16.7258898 21.25,15 C21.25,13.2741102 20.5504449,11.7116102 19.4194174,10.5805826 L20.3033009,9.69669914 C21.6605339,11.0539322 22.5,12.9289322 22.5,15 C22.5,17.0710678 21.6605339,18.9460678 20.3033009,20.3033009 L19.4194174,19.4194174 L19.4194174,19.4194174 Z M10.5805826,10.5805826 C9.44955508,11.7116102 8.75,13.2741102 8.75,15 C8.75,16.7258898 9.44955508,18.2883898 10.5805826,19.4194174 L9.69669914,20.3033009 C8.33946609,18.9460678 7.5,17.0710678 7.5,15 C7.5,12.9289322 8.33946609,11.0539322 9.69669914,9.69669914 L10.5805826,10.5805826 Z M15,17.5 C13.6192881,17.5 12.5,16.3807119 12.5,15 C12.5,13.6192881 13.6192881,12.5 15,12.5 C16.3807119,12.5 17.5,13.6192881 17.5,15 C17.5,16.3807119 16.3807119,17.5 15,17.5 Z"/>
</svg>
