<?xml version="1.0" encoding="UTF-8" standalone="no"?>
<!DOCTYPE svg PUBLIC "-//W3C//DTD SVG 1.1//EN" "http://www.w3.org/Graphics/SVG/1.1/DTD/svg11.dtd">
<svg width="100%" height="100%" viewBox="0 0 21 21" version="1.1" xmlns="http://www.w3.org/2000/svg" xmlns:xlink="http://www.w3.org/1999/xlink" xml:space="preserve" xmlns:serif="http://www.serif.com/" style="fill-rule:evenodd;clip-rule:evenodd;stroke-linejoin:round;stroke-miterlimit:2;">
    <path d="M10.5,19.5C15.471,19.5 19.5,15.471 19.5,10.5C19.5,5.529 15.471,1.5 10.5,1.5C5.529,1.5 1.5,5.529 1.5,10.5C1.5,15.471 5.529,19.5 10.5,19.5ZM10.5,0.5C16.023,0.5 20.5,4.977 20.5,10.5C20.5,16.023 16.023,20.5 10.5,20.5C4.977,20.5 0.5,16.023 0.5,10.5C0.5,4.977 4.977,0.5 10.5,0.5ZM11.002,6.5L10.002,6.5L10,11.031L12.623,13.654L13.33,12.947L11.002,10.618L11.002,6.5Z" style="fill:rgb(67,83,99);fill-rule:nonzero;"/>
</svg>
