<svg xmlns="http://www.w3.org/2000/svg" width="50" height="50" viewBox="0 0 50 50">
<path fill="#2ECC71" fill-rule="evenodd" d="M25,4.16666667 C36.5059323,4.16666667 45.8333333,13.4940677 45.8333333,25 C45.8333333,36.5059323 36.5059323,45.8333333 25,45.8333333 C13.4940677,45.8333333 4.16666667,36.5059323 4.16666667,25 C4.16666667,13.4940677 13.4940677,4.16666667 25,4.16666667 Z M26.0416667,12.5 L23.9583333,12.5 L23.9583333,14.6347659 C19.0370662,15.123379 15.123379,19.0370662 14.6347659,23.9583333 L14.6347659,23.9583333 L12.5,23.9583333 L12.5,26.0416667 L14.6347659,26.0416667 C15.123379,30.9629338 19.0370662,34.876621 23.9583333,35.3652341 L23.9583333,35.3652341 L23.9583333,37.5 L26.0416667,37.5 L26.0416667,35.3652341 C30.9629338,34.876621 34.876621,30.9629338 35.3652341,26.0416667 L35.3652341,26.0416667 L37.5,26.0416667 L37.5,23.9583333 L35.3652341,23.9583333 C34.876621,19.0370662 30.9629338,15.123379 26.0416667,14.6347659 L26.0416667,14.6347659 L26.0416667,12.5 Z M26.0416667,16.7311393 C29.8111639,17.201189 32.798811,20.1888361 33.2688607,23.9583333 L33.2688607,23.9583333 L29.1666667,23.9583333 L29.1666667,26.0416667 L33.2688607,26.0416667 C32.798811,29.8111639 29.8111639,32.798811 26.0416667,33.2688607 L26.0416667,33.2688607 L26.0416667,29.1666667 L23.9583333,29.1666667 L23.9583333,33.2688607 C20.1888361,32.798811 17.201189,29.8111639 16.7311393,26.0416667 L16.7311393,26.0416667 L20.8333333,26.0416667 L20.8333333,23.9583333 L16.7311393,23.9583333 C17.201189,20.1888361 20.1888361,17.201189 23.9583333,16.7311393 L23.9583333,16.7311393 L23.9583333,20.8333333 L26.0416667,20.8333333 Z"/>
</svg>
