<?xml version="1.0" encoding="UTF-8" standalone="no"?>
<!DOCTYPE svg PUBLIC "-//W3C//DTD SVG 1.1//EN" "http://www.w3.org/Graphics/SVG/1.1/DTD/svg11.dtd">
<svg width="100%" height="100%" viewBox="0 0 18 18" version="1.1" xmlns="http://www.w3.org/2000/svg" xmlns:xlink="http://www.w3.org/1999/xlink" xml:space="preserve" xmlns:serif="http://www.serif.com/" style="fill-rule:evenodd;clip-rule:evenodd;stroke-linejoin:round;stroke-miterlimit:2;">
    <g transform="matrix(1,0,0,1,-3,-3)">
        <path id="a" d="M19,3C20.105,3 21,3.895 21,5L21,19C21,20.105 20.105,21 19,21L5,21C3.895,21 3,20.105 3,19L3,5C3,3.895 3.895,3 5,3L19,3ZM19,4L5,4C4.448,4 4,4.448 4,5L4,19C4,19.552 4.448,20 5,20L19,20C19.552,20 20,19.552 20,19L20,5C20,4.448 19.552,4 19,4ZM15.5,7L15.5,10.1L14.5,10.1L14.5,7L13.5,7L13.5,10.1L12.5,10.1L12.5,7L11.5,7L11.5,10.1L10.5,10.1L10.5,7L9.5,7L9.5,10.1L8.5,10.1L8.5,7L7,7L7,14L10,14L10,17L14,17L14,14L17,14L17,7L15.5,7ZM15,15L15,18L9,18L9,15L6,15L6,6L18,6L18,15L15,15Z" style="fill:rgb(239,243,246);fill-rule:nonzero;"/>
    </g>
</svg>
