<svg xmlns="http://www.w3.org/2000/svg" width="50" height="50" viewBox="0 0 50 50">
<path fill="#00A7F7" d="M25,4.16666667 C36.5059323,4.16666667 45.8333333,13.4940677 45.8333333,25 C45.8333333,36.5059323 36.5059323,45.8333333 25,45.8333333 C13.4940677,45.8333333 4.16666667,36.5059323 4.16666667,25 C4.16666667,13.4940677 13.4940677,4.16666667 25,4.16666667 Z M23.2004102,20.7291663 L21.2111029,20.7291663 L21.2111029,22.8124996 L23.2004102,22.8124996 C23.7284811,22.8124996 24.1480509,23.2326289 24.1480509,23.7574948 L24.1480509,23.7574948 L24.1480509,31.2565815 L20.8333333,31.2565815 L20.8333333,33.3399148 L29.1666667,33.3399148 L29.1666667,31.2565815 L26.2313843,31.2565815 L26.2313843,23.7574948 C26.2313843,22.0826567 24.8796962,20.7291663 23.2004102,20.7291663 L23.2004102,20.7291663 Z M25,14.5833333 C23.8494068,14.5833333 22.9166667,15.5160734 22.9166667,16.6666667 C22.9166667,17.8172599 23.8494068,18.75 25,18.75 C26.1505932,18.75 27.0833333,17.8172599 27.0833333,16.6666667 C27.0833333,15.5160734 26.1505932,14.5833333 25,14.5833333 Z"/>
</svg>
