<svg xmlns="http://www.w3.org/2000/svg" width="30" height="30" viewBox="0 0 30 30">
<path fill="#778089" fill-rule="evenodd" d="M16.875,12.5 L24.375,12.5 C24.720178,12.5 25,12.779822 25,13.125 C25,13.470178 24.720178,13.75 24.375,13.75 L16.875,13.75 C16.529822,13.75 16.25,13.470178 16.25,13.125 C16.25,12.779822 16.529822,12.5 16.875,12.5 Z M15.625,16.25 L23.125,16.25 C23.470178,16.25 23.75,16.529822 23.75,16.875 C23.75,17.220178 23.470178,17.5 23.125,17.5 L15.625,17.5 C15.279822,17.5 15,17.220178 15,16.875 C15,16.529822 15.279822,16.25 15.625,16.25 Z M16.875,20 L24.375,20 C24.720178,20 25,20.279822 25,20.625 C25,20.970178 24.720178,21.25 24.375,21.25 L16.875,21.25 C16.529822,21.25 16.25,20.970178 16.25,20.625 C16.25,20.279822 16.529822,20 16.875,20 Z M7.5,12.5 C6.11928813,12.5 5,13.6192881 5,15 L3.75,15 C3.75,12.9289322 5.42893219,11.25 7.5,11.25 L7.5,12.5 Z M10,15 L11.25,15 L11.25,18.75 C11.25,20.8210678 9.57106781,22.5 7.5,22.5 C5.42893219,22.5 3.75,20.8210678 3.75,18.75 L3.75,17.5 L5,17.5 L5,18.75 C5,20.1307119 6.11928813,21.25 7.5,21.25 C8.88071187,21.25 10,20.1307119 10,18.75 L10,15 Z M7.5,13.75 C8.19035594,13.75 8.75,14.3096441 8.75,15 L8.75,18.75 C8.75,19.4403559 8.19035594,20 7.5,20 C6.80964406,20 6.25,19.4403559 6.25,18.75 L6.25,15 C6.25,14.3096441 6.80964406,13.75 7.5,13.75 Z M11.2506093,10 C12.7683211,11.140286 13.75,12.9555013 13.75,15 L13.75,18.75 C13.75,20.7944987 12.7683211,22.609714 11.2506093,23.75 L23.75,23.75 C25.8210678,23.75 27.5,22.0710678 27.5,20 L27.5,13.75 C27.5,11.6789322 25.8210678,10 23.75,10 L22.34375,10 L23,10.875 L22,11.625 L18.5629661,7.04228818 L17.0143414,7.81660056 L18.0929271,11.0523576 L16.9070729,11.4476424 L16.4245255,10 L11.2506093,10 L11.2506093,10 Z M7.5,10 C4.73857625,10 2.5,12.2385763 2.5,15 L2.5,18.75 C2.5,21.5114237 4.73857625,23.75 7.5,23.75 C10.2614237,23.75 12.5,21.5114237 12.5,18.75 L12.5,15 C12.5,12.2385763 10.2614237,10 7.5,10 Z M21.40625,8.75 L23.75,8.75 C26.5114237,8.75 28.75,10.9885763 28.75,13.75 L28.75,20 C28.75,22.7614237 26.5114237,25 23.75,25 L7.5,25 C4.04822031,25 1.25,22.2017797 1.25,18.75 L1.25,15 C1.25,11.5482203 4.04822031,8.75 7.5,8.75 L16.0078588,8.75 L15.6570729,7.69764235 C15.5587161,7.40257198 15.6922965,7.08008051 15.9704915,6.94098301 L18.4704915,5.69098301 C18.7406567,5.55590042 19.0687677,5.63335693 19.25,5.875 L21.40625,8.75 Z"/>
</svg>
