<?xml version="1.0" encoding="UTF-8" standalone="no"?>
<!DOCTYPE svg PUBLIC "-//W3C//DTD SVG 1.1//EN" "http://www.w3.org/Graphics/SVG/1.1/DTD/svg11.dtd">
<svg width="100%" height="100%" viewBox="0 0 21 21" version="1.1" xmlns="http://www.w3.org/2000/svg" xmlns:xlink="http://www.w3.org/1999/xlink" xml:space="preserve" xmlns:serif="http://www.serif.com/" style="fill-rule:evenodd;clip-rule:evenodd;stroke-linejoin:round;stroke-miterlimit:2;">
    <g>
        <g>
            <clipPath id="_clip1">
                <path d="M17.415,11.08L15.285,11.08L14.25,9.01L13.21,11.08L11.63,11.08L11.185,11.975L9.525,6.18L7.795,11.375L6.285,9.105L5.295,11.08L3.165,11.08L3.165,3.955L17.415,3.955L17.415,11.08ZM17.415,11.875L17.415,16.625L3.165,16.625L3.165,11.875L5.785,11.875L6.38,10.68L8.035,13.16L9.47,8.86L10.98,14.15L12.12,11.875L13.7,11.875L14.25,10.78L14.795,11.875L17.415,11.875ZM2.375,17.415L18.205,17.415L18.205,3.165L2.375,3.165L2.375,17.415Z"/>
            </clipPath>
            <g clip-path="url(#_clip1)">
                <rect x="0" y="0" width="20.58" height="20.58" style="fill:rgb(67,83,99);"/>
            </g>
        </g>
    </g>
</svg>
