<?xml version="1.0" encoding="UTF-8" standalone="no"?>
<!DOCTYPE svg PUBLIC "-//W3C//DTD SVG 1.1//EN" "http://www.w3.org/Graphics/SVG/1.1/DTD/svg11.dtd">
<svg width="100%" height="100%" viewBox="0 0 25 25" version="1.1" xmlns="http://www.w3.org/2000/svg" xmlns:xlink="http://www.w3.org/1999/xlink" xml:space="preserve" xmlns:serif="http://www.serif.com/" style="fill-rule:evenodd;clip-rule:evenodd;stroke-linejoin:round;stroke-miterlimit:2;">
    <path d="M4.233,16.52C4.519,16.207 4.913,16.015 5.335,15.982C5.531,15.973 5.727,16.006 5.91,16.081C6.092,16.155 6.255,16.269 6.389,16.413C6.584,16.598 6.724,16.832 6.794,17.091C6.856,17.34 6.842,17.602 6.754,17.844C6.655,18.12 6.494,18.369 6.282,18.572L3.512,21.346L4.809,22.645L7.55,19.9C7.982,19.483 8.306,18.968 8.493,18.398C8.662,17.868 8.669,17.299 8.513,16.765C8.321,16.188 7.998,15.664 7.568,15.233C7.139,14.804 6.615,14.48 6.039,14.288C5.506,14.13 4.938,14.137 4.408,14.308C3.838,14.496 3.323,14.82 2.906,15.254L0.167,17.997L1.463,19.295L4.233,16.52Z" style="fill:url(#_Radial1);fill-rule:nonzero;"/>
    <path d="M14.097,0.463C13.519,0.159 12.875,0 12.221,0C11.568,0 10.924,0.159 10.345,0.463C9.77,0.764 9.286,1.214 8.944,1.767C8.613,2.307 8.433,2.926 8.425,3.56L8.425,10.14L10.259,10.14L10.259,6.851L10.349,6.901C10.927,7.205 11.571,7.364 12.225,7.364C12.878,7.364 13.522,7.205 14.1,6.901C14.677,6.6 15.163,6.15 15.508,5.597C15.855,5.019 16.039,4.358 16.039,3.684C16.039,3.009 15.855,2.348 15.508,1.77C15.162,1.217 14.675,0.766 14.097,0.463ZM13.934,4.712C13.77,5.011 13.527,5.259 13.231,5.429C12.926,5.601 12.581,5.692 12.231,5.692C11.881,5.692 11.536,5.601 11.231,5.429C10.935,5.259 10.692,5.011 10.528,4.712C10.36,4.395 10.272,4.042 10.272,3.683C10.272,3.324 10.36,2.971 10.528,2.654C10.692,2.354 10.935,2.105 11.231,1.935C11.536,1.763 11.881,1.672 12.231,1.672C12.581,1.672 12.926,1.763 13.231,1.935C13.527,2.105 13.77,2.354 13.934,2.654C14.102,2.971 14.19,3.324 14.19,3.683C14.19,4.042 14.102,4.395 13.934,4.712Z" style="fill:url(#_Radial2);fill-rule:nonzero;"/>
    <path d="M10.372,24.539C10.95,24.842 11.592,25 12.244,25C12.896,25 13.538,24.842 14.116,24.539C14.691,24.238 15.175,23.788 15.516,23.235C15.847,22.696 16.027,22.076 16.036,21.442L16.036,14.863L14.201,14.863L14.201,18.153L14.109,18.101C13.532,17.798 12.889,17.64 12.238,17.64C11.586,17.64 10.943,17.798 10.366,18.101C9.789,18.402 9.303,18.853 8.958,19.405C8.611,19.983 8.427,20.644 8.427,21.319C8.427,21.993 8.611,22.654 8.958,23.232C9.305,23.786 9.793,24.237 10.372,24.539ZM10.535,20.29C10.701,19.991 10.944,19.744 11.24,19.573C11.545,19.401 11.89,19.31 12.24,19.31C12.59,19.31 12.935,19.401 13.24,19.573C13.535,19.744 13.778,19.992 13.943,20.29C14.111,20.607 14.199,20.961 14.199,21.319C14.199,21.678 14.111,22.032 13.943,22.349C13.778,22.648 13.535,22.896 13.24,23.067C12.935,23.24 12.59,23.33 12.24,23.33C11.89,23.33 11.545,23.24 11.24,23.067C10.944,22.896 10.7,22.648 10.535,22.349C10.367,22.032 10.279,21.678 10.279,21.319C10.279,20.961 10.367,20.607 10.535,20.29Z" style="fill:url(#_Radial3);fill-rule:nonzero;"/>
    <rect x="0.325" y="11.583" width="9.934" height="1.837" style="fill:url(#_Radial4);fill-rule:nonzero;"/>
    <path d="M23.864,17.254C24.166,16.676 24.324,16.033 24.324,15.38C24.324,14.727 24.166,14.084 23.864,13.506C23.564,12.93 23.114,12.445 22.562,12.104C22.023,11.772 21.404,11.592 20.772,11.583L14.201,11.583L14.201,13.421L17.487,13.421L17.435,13.512C17.133,14.091 16.975,14.734 16.975,15.387C16.975,16.04 17.133,16.683 17.435,17.261C17.736,17.839 18.185,18.325 18.737,18.671C19.314,19.018 19.975,19.202 20.648,19.202C21.321,19.202 21.982,19.018 22.559,18.671C23.112,18.323 23.562,17.834 23.864,17.254ZM19.621,17.091C19.323,16.926 19.075,16.682 18.905,16.386C18.733,16.08 18.642,15.735 18.642,15.384C18.642,15.034 18.733,14.688 18.905,14.383C19.076,14.088 19.323,13.845 19.621,13.679C19.937,13.51 20.29,13.423 20.649,13.423C21.007,13.423 21.36,13.51 21.677,13.679C21.975,13.844 22.223,14.087 22.394,14.383C22.566,14.688 22.656,15.033 22.656,15.384C22.656,15.735 22.566,16.08 22.394,16.386C22.224,16.682 21.975,16.926 21.677,17.091C21.36,17.26 21.007,17.347 20.649,17.347C20.29,17.347 19.937,17.26 19.621,17.091Z" style="fill:url(#_Radial5);fill-rule:nonzero;"/>
    <path d="M23.145,5.228C22.799,4.676 22.314,4.226 21.737,3.924C21.159,3.62 20.515,3.461 19.861,3.461C19.207,3.461 18.563,3.62 17.984,3.924C17.409,4.226 16.926,4.676 16.584,5.228C16.241,5.807 16.06,6.468 16.06,7.142C16.06,7.815 16.241,8.476 16.584,9.055C16.925,9.608 17.409,10.059 17.984,10.359C18.563,10.663 19.207,10.822 19.861,10.822C20.515,10.822 21.159,10.663 21.737,10.359C22.314,10.058 22.8,9.608 23.145,9.055C23.492,8.477 23.676,7.816 23.676,7.142C23.676,6.467 23.492,5.806 23.145,5.228ZM21.571,8.172C21.407,8.471 21.163,8.719 20.868,8.889C20.563,9.061 20.218,9.151 19.868,9.151C19.517,9.151 19.173,9.061 18.868,8.889C18.572,8.719 18.329,8.471 18.165,8.172C17.997,7.855 17.909,7.501 17.909,7.142C17.909,6.784 17.997,6.43 18.165,6.113C18.329,5.814 18.572,5.565 18.868,5.394C19.173,5.222 19.517,5.132 19.868,5.132C20.218,5.132 20.563,5.222 20.868,5.394C21.164,5.565 21.407,5.814 21.571,6.113C21.739,6.43 21.827,6.784 21.827,7.142C21.827,7.501 21.739,7.855 21.571,8.172Z" style="fill:url(#_Radial6);fill-rule:nonzero;"/>
    <path d="M7.086,5.228C6.74,4.676 6.254,4.226 5.678,3.924C5.099,3.62 4.455,3.461 3.801,3.461C3.147,3.461 2.503,3.62 1.924,3.924C1.349,4.226 0.866,4.676 0.524,5.228C0.181,5.807 0,6.468 0,7.142C0,7.815 0.181,8.476 0.524,9.055C0.865,9.608 1.349,10.059 1.924,10.359C2.503,10.663 3.147,10.822 3.801,10.822C4.455,10.822 5.099,10.663 5.678,10.359C6.255,10.058 6.741,9.608 7.086,9.055C7.433,8.477 7.616,7.816 7.616,7.142C7.616,6.467 7.433,5.806 7.086,5.228ZM5.511,8.172C5.347,8.471 5.103,8.719 4.808,8.889C4.503,9.061 4.158,9.151 3.808,9.151C3.458,9.151 3.113,9.061 2.808,8.889C2.513,8.719 2.269,8.471 2.105,8.172C1.937,7.855 1.849,7.501 1.849,7.142C1.849,6.784 1.937,6.43 2.105,6.113C2.269,5.814 2.512,5.565 2.808,5.394C3.113,5.222 3.458,5.132 3.808,5.132C4.158,5.132 4.503,5.222 4.808,5.394C5.104,5.565 5.347,5.814 5.511,6.113C5.679,6.43 5.767,6.784 5.767,7.142C5.767,7.501 5.679,7.855 5.511,8.172Z" style="fill:url(#_Radial7);fill-rule:nonzero;"/>
    <defs>
        <radialGradient id="_Radial1" cx="0" cy="0" r="1" gradientUnits="userSpaceOnUse" gradientTransform="matrix(-41.9186,1.98856,-3.74818,-79.011,38.9075,10.5023)"><stop offset="0" style="stop-color:rgb(41,41,41);stop-opacity:1"/><stop offset="0.36" style="stop-color:rgb(89,22,255);stop-opacity:1"/><stop offset="0.68" style="stop-color:rgb(240,71,255);stop-opacity:1"/><stop offset="1" style="stop-color:rgb(255,175,38);stop-opacity:1"/></radialGradient>
        <radialGradient id="_Radial2" cx="0" cy="0" r="1" gradientUnits="userSpaceOnUse" gradientTransform="matrix(-41.9186,1.98856,-3.74818,-79.011,38.9075,10.5023)"><stop offset="0" style="stop-color:rgb(41,41,41);stop-opacity:1"/><stop offset="0.36" style="stop-color:rgb(89,22,255);stop-opacity:1"/><stop offset="0.68" style="stop-color:rgb(240,71,255);stop-opacity:1"/><stop offset="1" style="stop-color:rgb(255,175,38);stop-opacity:1"/></radialGradient>
        <radialGradient id="_Radial3" cx="0" cy="0" r="1" gradientUnits="userSpaceOnUse" gradientTransform="matrix(-41.9186,1.98856,-3.74818,-79.011,38.9075,10.5023)"><stop offset="0" style="stop-color:rgb(41,41,41);stop-opacity:1"/><stop offset="0.36" style="stop-color:rgb(89,22,255);stop-opacity:1"/><stop offset="0.68" style="stop-color:rgb(240,71,255);stop-opacity:1"/><stop offset="1" style="stop-color:rgb(255,175,38);stop-opacity:1"/></radialGradient>
        <radialGradient id="_Radial4" cx="0" cy="0" r="1" gradientUnits="userSpaceOnUse" gradientTransform="matrix(-41.9186,1.98856,-3.74818,-79.011,38.9075,10.5023)"><stop offset="0" style="stop-color:rgb(41,41,41);stop-opacity:1"/><stop offset="0.36" style="stop-color:rgb(89,22,255);stop-opacity:1"/><stop offset="0.68" style="stop-color:rgb(240,71,255);stop-opacity:1"/><stop offset="1" style="stop-color:rgb(255,175,38);stop-opacity:1"/></radialGradient>
        <radialGradient id="_Radial5" cx="0" cy="0" r="1" gradientUnits="userSpaceOnUse" gradientTransform="matrix(-41.9186,1.98856,-3.74818,-79.011,38.9075,10.5023)"><stop offset="0" style="stop-color:rgb(41,41,41);stop-opacity:1"/><stop offset="0.36" style="stop-color:rgb(89,22,255);stop-opacity:1"/><stop offset="0.68" style="stop-color:rgb(240,71,255);stop-opacity:1"/><stop offset="1" style="stop-color:rgb(255,175,38);stop-opacity:1"/></radialGradient>
        <radialGradient id="_Radial6" cx="0" cy="0" r="1" gradientUnits="userSpaceOnUse" gradientTransform="matrix(-41.9186,1.98856,-3.74818,-79.011,38.9075,10.5023)"><stop offset="0" style="stop-color:rgb(41,41,41);stop-opacity:1"/><stop offset="0.36" style="stop-color:rgb(89,22,255);stop-opacity:1"/><stop offset="0.68" style="stop-color:rgb(240,71,255);stop-opacity:1"/><stop offset="1" style="stop-color:rgb(255,175,38);stop-opacity:1"/></radialGradient>
        <radialGradient id="_Radial7" cx="0" cy="0" r="1" gradientUnits="userSpaceOnUse" gradientTransform="matrix(-41.9186,1.98856,-3.74818,-79.011,38.9075,10.5023)"><stop offset="0" style="stop-color:rgb(41,41,41);stop-opacity:1"/><stop offset="0.36" style="stop-color:rgb(89,22,255);stop-opacity:1"/><stop offset="0.68" style="stop-color:rgb(240,71,255);stop-opacity:1"/><stop offset="1" style="stop-color:rgb(255,175,38);stop-opacity:1"/></radialGradient>
    </defs>
</svg>
