<svg fill="none" xmlns="http://www.w3.org/2000/svg" viewBox="0 0 108 25"><g clip-path="url(#company-logo_svg__clip0_2_1010)"><path d="M4.23347 16.5205C4.51874 16.2072 4.91272 16.0148 5.33489 15.9822C5.53144 15.9728 5.72746 16.0064 5.90958 16.0808C6.0917 16.1553 6.25527 16.2686 6.38898 16.4131C6.58365 16.5979 6.72352 16.832 6.7944 17.091C6.85603 17.3402 6.8418 17.6021 6.75405 17.8436C6.6552 18.1195 6.49375 18.3691 6.28205 18.5718L3.51172 21.346L4.80893 22.6449L7.55047 19.8996C7.98213 19.4834 8.30557 18.9678 8.49306 18.3978C8.66239 17.8676 8.66941 17.2989 8.51257 16.7647C8.321 16.1879 7.99768 15.6637 7.56815 15.2335C7.13892 14.8037 6.61543 14.48 6.03906 14.2878C5.50603 14.1303 4.93773 14.1372 4.40847 14.3077C3.83802 14.4955 3.32258 14.8205 2.90641 15.2539L0.167169 17.9968L1.46314 19.2946L4.23347 16.5205Z" fill="url(#company-logo_svg__paint0_radial_2_1010)"/><path d="M14.0971 0.462991C13.5185 0.158892 12.8747 0 12.2212 0C11.5677 0 10.9239 0.158893 10.3453 0.462991C9.76994 0.764048 9.28592 1.2144 8.94388 1.76694C8.6126 2.30679 8.43319 2.92624 8.42464 3.55982V10.1397H10.259V6.8506L10.3485 6.90113C10.9272 7.20523 11.571 7.36412 12.2245 7.36412C12.878 7.36412 13.5217 7.20523 14.1004 6.90113C14.6773 6.5999 15.1634 6.14972 15.5083 5.59718C15.8555 5.01948 16.0389 4.35793 16.0389 3.68369C16.0389 3.00945 15.8555 2.34789 15.5083 1.7702C15.1621 1.21678 14.675 0.765658 14.0971 0.462991ZM13.9344 4.71217C13.7696 5.01097 13.5265 5.25893 13.2312 5.42929C12.9258 5.6014 12.5813 5.69177 12.231 5.69177C11.8806 5.69177 11.5361 5.6014 11.2307 5.42929C10.9354 5.25893 10.6923 5.01097 10.5276 4.71217C10.3599 4.39508 10.2722 4.04171 10.2722 3.68286C10.2722 3.32406 10.3599 2.97069 10.5276 2.6536C10.6918 2.35398 10.935 2.10536 11.2307 1.93478C11.5361 1.76272 11.8806 1.67235 12.231 1.67235C12.5813 1.67235 12.9258 1.76272 13.2312 1.93478C13.5269 2.10536 13.7702 2.35398 13.9344 2.6536C14.1021 2.97069 14.1898 3.32406 14.1898 3.68286C14.1898 4.04171 14.1021 4.39508 13.9344 4.71217Z" fill="url(#company-logo_svg__paint1_radial_2_1010)"/><path d="M10.3723 24.5392C10.9498 24.8419 11.592 25 12.2441 25C12.8958 25 13.538 24.8419 14.116 24.5392C14.6909 24.2385 15.1747 23.788 15.5157 23.2352C15.8472 22.6955 16.0273 22.0761 16.0364 21.4424V14.8625H14.2006V18.1532L14.1094 18.101C13.5315 17.7983 12.8893 17.6402 12.2376 17.6402C11.5855 17.6402 10.9433 17.7983 10.3658 18.101C9.7887 18.4023 9.30273 18.8525 8.95778 19.405C8.61067 19.9827 8.42712 20.6442 8.42712 21.3185C8.42712 21.9927 8.61067 22.6542 8.95778 23.232C9.3049 23.7858 9.79304 24.237 10.3723 24.5392ZM10.535 20.29C10.7008 19.9915 10.9442 19.7436 11.2397 19.5728C11.5451 19.4008 11.8896 19.3104 12.2398 19.3104C12.5904 19.3104 12.9349 19.4008 13.2399 19.5728C13.5345 19.7442 13.7775 19.9919 13.9433 20.29C14.1112 20.6071 14.1988 20.9605 14.1988 21.3193C14.1988 21.6781 14.1112 22.0315 13.9433 22.3486C13.7779 22.6475 13.535 22.8959 13.2399 23.0673C12.9349 23.2395 12.5904 23.3298 12.2398 23.3298C11.8896 23.3298 11.5451 23.2395 11.2397 23.0673C10.9437 22.8964 10.7003 22.6479 10.535 22.3486C10.3671 22.0315 10.2794 21.6781 10.2794 21.3193C10.2794 20.9605 10.3671 20.6071 10.535 20.29Z" fill="url(#company-logo_svg__paint2_radial_2_1010)"/><path d="M0.325309 11.5826V13.4196H10.259V11.5826H0.325309Z" fill="url(#company-logo_svg__paint3_radial_2_1010)"/><path d="M23.8641 17.2544C24.1664 16.6761 24.3243 16.033 24.3243 15.38C24.3243 14.727 24.1664 14.0843 23.8641 13.5056C23.5639 12.9299 23.114 12.4454 22.562 12.1039C22.023 11.772 21.4044 11.5917 20.7715 11.5826H14.2006V13.4209H17.4868L17.4348 13.5121C17.1325 14.0909 16.9745 14.7339 16.9745 15.3865C16.9745 16.0395 17.1325 16.6826 17.4348 17.2609C17.7356 17.8388 18.1852 18.3254 18.7369 18.6708C19.3139 19.0184 19.9745 19.2022 20.6478 19.2022C21.3211 19.2022 21.9818 19.0184 22.5587 18.6708C23.1118 18.3232 23.5624 17.8344 23.8641 17.2544ZM19.6207 17.0914C19.3227 16.9255 19.0751 16.6817 18.9046 16.3858C18.7327 16.08 18.6425 15.735 18.6425 15.3843C18.6425 15.0337 18.7327 14.6883 18.9046 14.3828C19.0757 14.0878 19.3231 13.8445 19.6207 13.6785C19.9374 13.5104 20.2903 13.4226 20.6487 13.4226C21.007 13.4226 21.3599 13.5104 21.6765 13.6785C21.975 13.8441 22.2231 14.0874 22.3943 14.3828C22.5662 14.6883 22.6564 15.0333 22.6564 15.3843C22.6564 15.735 22.5662 16.08 22.3943 16.3858C22.2236 16.6822 21.9754 16.9259 21.6765 17.0914C21.3599 17.2596 21.007 17.3474 20.6487 17.3474C20.2903 17.3474 19.9374 17.2596 19.6207 17.0914Z" fill="url(#company-logo_svg__paint4_radial_2_1010)"/><path d="M23.1453 5.22816C22.7995 4.67641 22.3135 4.22645 21.7373 3.92422C21.1585 3.62012 20.5146 3.46123 19.8607 3.46123C19.2068 3.46123 18.5629 3.62012 17.9841 3.92422C17.4092 4.2258 16.9258 4.67606 16.5839 5.22816C16.2407 5.80725 16.0597 6.46824 16.0597 7.14166C16.0597 7.81507 16.2407 8.47606 16.5839 9.05515C16.9249 9.60804 17.4087 10.0585 17.9841 10.3591C18.5629 10.6632 19.2068 10.8221 19.8607 10.8221C20.5146 10.8221 21.1585 10.6632 21.7373 10.3591C22.3144 10.0579 22.8003 9.60769 23.1453 9.05515C23.4924 8.47745 23.6759 7.8159 23.6759 7.14166C23.6759 6.46737 23.4924 5.80586 23.1453 5.22816ZM21.5711 8.17174C21.4066 8.47054 21.1632 8.71855 20.8682 8.88891C20.5627 9.06097 20.2182 9.15139 19.868 9.15139C19.5175 9.15139 19.1729 9.06097 18.8675 8.88891C18.5724 8.71855 18.329 8.47054 18.1646 8.17174C17.9966 7.85465 17.909 7.50128 17.909 7.14248C17.909 6.78364 17.9966 6.43027 18.1646 6.11318C18.3286 5.8136 18.572 5.56494 18.8675 5.3944C19.1729 5.22234 19.5175 5.13193 19.868 5.13193C20.2182 5.13193 20.5627 5.22234 20.8682 5.3944C21.1637 5.56494 21.4071 5.8136 21.5711 6.11318C21.739 6.43027 21.8267 6.78364 21.8267 7.14248C21.8267 7.50128 21.739 7.85465 21.5711 8.17174Z" fill="url(#company-logo_svg__paint5_radial_2_1010)"/><path d="M7.08553 5.22816C6.73972 4.67641 6.25376 4.22645 5.67754 3.92422C5.09872 3.62012 4.45482 3.46123 3.80094 3.46123C3.14705 3.46123 2.50315 3.62012 1.92433 3.92422C1.34942 4.2258 0.866054 4.67606 0.524144 5.22816C0.180932 5.80725 0 6.46824 0 7.14166C0 7.81507 0.180932 8.47606 0.524144 9.05515C0.865186 9.60804 1.34898 10.0585 1.92433 10.3591C2.50315 10.6632 3.14705 10.8221 3.80094 10.8221C4.45482 10.8221 5.09872 10.6632 5.67754 10.3591C6.25463 10.0579 6.74059 9.60769 7.08553 9.05515C7.43265 8.47745 7.61619 7.8159 7.61619 7.14166C7.61619 6.46737 7.43265 5.80586 7.08553 5.22816ZM5.51136 8.17174C5.34691 8.47054 5.10349 8.71855 4.80845 8.88891C4.50298 9.06097 4.15847 9.15139 3.80831 9.15139C3.45772 9.15139 3.1132 9.06097 2.80774 8.88891C2.5127 8.71855 2.26928 8.47054 2.10483 8.17174C1.93691 7.85465 1.84926 7.50128 1.84926 7.14248C1.84926 6.78364 1.93691 6.43027 2.10483 6.11318C2.26884 5.8136 2.51226 5.56494 2.80774 5.3944C3.1132 5.22234 3.45772 5.13193 3.80831 5.13193C4.15847 5.13193 4.50298 5.22234 4.80845 5.3944C5.10393 5.56494 5.34734 5.8136 5.51136 6.11318C5.67928 6.43027 5.76693 6.78364 5.76693 7.14248C5.76693 7.50128 5.67928 7.85465 5.51136 8.17174Z" fill="url(#company-logo_svg__paint6_radial_2_1010)"/><path d="M85.0164 14.0036C84.7066 14.0052 84.3999 13.9416 84.1163 13.8169C83.8327 13.6922 83.5785 13.5091 83.3702 13.2797C83.162 13.0503 83.0044 12.7797 82.9076 12.4853C82.8109 12.191 82.7772 11.8796 82.8087 11.5714V5.60308H80.0023V11.4965C79.9526 12.1694 80.0479 12.8451 80.2818 13.478C80.5157 14.1109 80.8827 14.6862 81.358 15.1651C81.8334 15.644 82.4059 16.0152 83.037 16.2538C83.6682 16.4924 84.3432 16.5927 85.0164 16.5481C85.6881 16.59 86.361 16.4875 86.9899 16.2477C87.6187 16.0079 88.1889 15.6362 88.6622 15.1576C89.1354 14.6791 89.5007 14.1047 89.7335 13.4732C89.9663 12.8418 90.0612 12.1678 90.0118 11.4965V5.60308H87.2054V11.5714C87.2367 11.878 87.2035 12.1878 87.1079 12.4809C87.0123 12.7739 86.8563 13.0437 86.6501 13.2728C86.4439 13.5019 86.192 13.6853 85.9106 13.8112C85.6293 13.937 85.3246 14.0026 85.0164 14.0036ZM34.0894 7.88562C33.3194 7.94589 32.6005 8.2943 32.0761 8.86133C31.5517 9.42836 31.2605 10.1723 31.2605 10.9446C31.2605 11.7169 31.5517 12.4609 32.0761 13.0279C32.6005 13.5949 33.3194 13.9433 34.0894 14.0036C34.8594 13.9433 35.5783 13.5949 36.1027 13.0279C36.627 12.4609 36.9183 11.7169 36.9183 10.9446C36.9183 10.1723 36.627 9.42836 36.1027 8.86133C35.5783 8.2943 34.8594 7.94589 34.0894 7.88562ZM28.2708 10.954C28.2829 10.203 28.4432 9.46175 28.7425 8.77283C29.0417 8.08392 29.4741 7.46087 30.0146 6.9394C30.5552 6.41794 31.1934 6.00833 31.8927 5.73406C32.5919 5.45979 33.3384 5.32627 34.0894 5.34114C34.8403 5.32627 35.5868 5.45979 36.2861 5.73406C36.9853 6.00833 37.6235 6.41794 38.1641 6.9394C38.7047 7.46087 39.137 8.08392 39.4363 8.77283C39.7355 9.46175 39.8958 10.203 39.908 10.954C39.8958 11.705 39.7355 12.4462 39.4363 13.1351C39.137 13.824 38.7047 14.4471 38.1641 14.9685C37.6235 15.49 36.9853 15.8996 36.2861 16.1739C35.5868 16.4481 34.8403 16.5817 34.0894 16.5668C33.0238 16.567 31.9775 16.2828 31.0585 15.7436V20.7951H28.2708V10.954ZM72.7991 7.88562C72.1886 7.867 71.5865 8.03101 71.0697 8.35664C70.553 8.68228 70.1452 9.15472 69.8986 9.71349C69.6519 10.2723 69.5776 10.8919 69.6853 11.4932C69.7929 12.0944 70.0775 12.6498 70.5026 13.0883C70.9278 13.5269 71.4741 13.8285 72.0718 13.9547C72.6694 14.0809 73.291 14.0258 73.8572 13.7966C74.4233 13.5674 74.9081 13.1744 75.2496 12.668C75.5911 12.1616 75.7737 11.5648 75.7739 10.954C75.784 10.1533 75.4767 9.38118 74.9194 8.80627C74.362 8.23137 73.5998 7.90039 72.7991 7.88562ZM66.9618 10.954C66.9618 9.41077 67.5748 7.93078 68.666 6.83958C69.7573 5.74837 71.2372 5.13534 72.7804 5.13534C74.3236 5.13534 75.8036 5.74837 76.8948 6.83958C77.986 7.93078 78.5991 9.41077 78.5991 10.954C78.5869 11.705 78.4266 12.4462 78.1273 13.1351C77.8281 13.824 77.3958 14.4471 76.8552 14.9685C76.3146 15.49 75.6764 15.8996 74.9771 16.1739C74.2779 16.4481 73.5314 16.5817 72.7804 16.5668C71.7204 16.5701 70.6793 16.2856 69.7682 15.7436V20.7951H66.9618V10.954ZM59.8897 7.88562C59.2798 7.87074 58.6794 8.03798 58.1651 8.36596C57.6507 8.69394 57.2458 9.16779 57.0021 9.72698C56.7583 10.2862 56.6868 10.9053 56.7966 11.5054C56.9064 12.1054 57.1926 12.6591 57.6186 13.0957C58.0445 13.5324 58.591 13.8321 59.1882 13.9567C59.7853 14.0813 60.406 14.0251 60.9711 13.7952C61.5361 13.5653 62.0198 13.1722 62.3604 12.6662C62.701 12.1601 62.883 11.564 62.8832 10.954C62.8882 10.1516 62.5768 9.37947 62.0165 8.80511C61.4561 8.23074 60.692 7.90038 59.8897 7.88562ZM54.071 10.954C54.071 9.41077 54.6841 7.93078 55.7753 6.83958C56.8665 5.74837 58.3465 5.13534 59.8897 5.13534C61.4328 5.13534 62.9128 5.74837 64.004 6.83958C65.0952 7.93078 65.7083 9.41077 65.7083 10.954C65.6961 11.705 65.5358 12.4462 65.2365 13.1351C64.9373 13.824 64.505 14.4471 63.9644 14.9685C63.4238 15.49 62.7856 15.8996 62.0864 16.1739C61.3871 16.4481 60.6406 16.5817 59.8897 16.5668C58.8241 16.567 57.7778 16.2828 56.8587 15.7436V20.7951H54.071V10.954ZM102.005 7.88562C101.394 7.867 100.792 8.03101 100.275 8.35664C99.7584 8.68228 99.3506 9.15472 99.1039 9.71349C98.8573 10.2723 98.783 10.8919 98.8906 11.4932C98.9983 12.0944 99.2829 12.6498 99.708 13.0883C100.133 13.5269 100.68 13.8285 101.277 13.9547C101.875 14.0809 102.496 14.0258 103.063 13.7966C103.629 13.5674 104.114 13.1744 104.455 12.668C104.796 12.1616 104.979 11.5648 104.979 10.954C104.984 10.1547 104.676 9.3854 104.119 8.81156C103.563 8.23772 102.804 7.90522 102.005 7.88562ZM107.823 10.954C107.823 12.4972 107.21 13.9772 106.119 15.0684C105.028 16.1596 103.548 16.7726 102.005 16.7726C100.461 16.7726 98.9814 16.1596 97.8902 15.0684C96.799 13.9772 96.1859 12.4972 96.1859 10.954C96.1859 9.41077 96.799 7.93078 97.8902 6.83958C98.9814 5.74837 100.461 5.13534 102.005 5.13534C103.548 5.13534 105.028 5.74837 106.119 6.83958C107.21 7.93078 107.823 9.41077 107.823 10.954ZM46.9802 7.88562C46.3703 7.87074 45.7699 8.03798 45.2556 8.36596C44.7412 8.69394 44.3363 9.16779 44.0926 9.72698C43.8488 10.2862 43.7773 10.9053 43.8871 11.5054C43.9969 12.1054 44.2831 12.6591 44.7091 13.0957C45.135 13.5324 45.6815 13.8321 46.2787 13.9567C46.8758 14.0813 47.4965 14.0251 48.0616 13.7952C48.6266 13.5653 49.1103 13.1722 49.4509 12.6662C49.7915 12.1601 49.9735 11.564 49.9737 10.954C49.9786 10.5559 49.9051 10.1608 49.7573 9.7912C49.6096 9.42157 49.3904 9.08468 49.1125 8.79975C48.8345 8.51482 48.5031 8.28744 48.1372 8.1306C47.7714 7.97375 47.3782 7.89051 46.9802 7.88562ZM52.8175 10.954C52.788 12.4691 52.1589 13.9108 51.0682 14.9629C49.9775 16.0151 48.5141 16.5918 46.9989 16.5668C46.2479 16.5817 45.5014 16.4481 44.8022 16.1739C44.1029 15.8996 43.4647 15.49 42.9241 14.9685C42.3836 14.4471 41.9512 13.824 41.652 13.1351C41.3527 12.4462 41.1924 11.705 41.1802 10.954C41.1924 10.203 41.3527 9.46175 41.652 8.77283C41.9512 8.08392 42.3836 7.46087 42.9241 6.9394C43.4647 6.41794 44.1029 6.00833 44.8022 5.73406C45.5014 5.45979 46.2479 5.32627 46.9989 5.34114C48.5141 5.31609 49.9775 5.89285 51.0682 6.94498C52.1589 7.99712 52.788 9.43879 52.8175 10.954ZM94.7827 1.16895H91.995V16.2861H94.7827V1.16895Z" fill="black"/></g><defs><radialGradient id="company-logo_svg__paint0_radial_2_1010" cx="0" cy="0" r="1" gradientUnits="userSpaceOnUse" gradientTransform="translate(38.9075 10.5023) rotate(177.284) scale(41.9657 79.0999)"><stop stop-color="#292929"/><stop offset="0.358894" stop-color="#5916FF"/><stop offset="0.681024" stop-color="#F047FF"/><stop offset="1" stop-color="#FFAF26"/></radialGradient><radialGradient id="company-logo_svg__paint1_radial_2_1010" cx="0" cy="0" r="1" gradientUnits="userSpaceOnUse" gradientTransform="translate(38.9075 10.5023) rotate(177.284) scale(41.9657 79.0999)"><stop stop-color="#292929"/><stop offset="0.358894" stop-color="#5916FF"/><stop offset="0.681024" stop-color="#F047FF"/><stop offset="1" stop-color="#FFAF26"/></radialGradient><radialGradient id="company-logo_svg__paint2_radial_2_1010" cx="0" cy="0" r="1" gradientUnits="userSpaceOnUse" gradientTransform="translate(38.9075 10.5023) rotate(177.284) scale(41.9657 79.0999)"><stop stop-color="#292929"/><stop offset="0.358894" stop-color="#5916FF"/><stop offset="0.681024" stop-color="#F047FF"/><stop offset="1" stop-color="#FFAF26"/></radialGradient><radialGradient id="company-logo_svg__paint3_radial_2_1010" cx="0" cy="0" r="1" gradientUnits="userSpaceOnUse" gradientTransform="translate(38.9075 10.5023) rotate(177.284) scale(41.9657 79.0999)"><stop stop-color="#292929"/><stop offset="0.358894" stop-color="#5916FF"/><stop offset="0.681024" stop-color="#F047FF"/><stop offset="1" stop-color="#FFAF26"/></radialGradient><radialGradient id="company-logo_svg__paint4_radial_2_1010" cx="0" cy="0" r="1" gradientUnits="userSpaceOnUse" gradientTransform="translate(38.9075 10.5023) rotate(177.284) scale(41.9657 79.0999)"><stop stop-color="#292929"/><stop offset="0.358894" stop-color="#5916FF"/><stop offset="0.681024" stop-color="#F047FF"/><stop offset="1" stop-color="#FFAF26"/></radialGradient><radialGradient id="company-logo_svg__paint5_radial_2_1010" cx="0" cy="0" r="1" gradientUnits="userSpaceOnUse" gradientTransform="translate(38.9075 10.5023) rotate(177.284) scale(41.9657 79.0999)"><stop stop-color="#292929"/><stop offset="0.358894" stop-color="#5916FF"/><stop offset="0.681024" stop-color="#F047FF"/><stop offset="1" stop-color="#FFAF26"/></radialGradient><radialGradient id="company-logo_svg__paint6_radial_2_1010" cx="0" cy="0" r="1" gradientUnits="userSpaceOnUse" gradientTransform="translate(38.9075 10.5023) rotate(177.284) scale(41.9657 79.0999)"><stop stop-color="#292929"/><stop offset="0.358894" stop-color="#5916FF"/><stop offset="0.681024" stop-color="#F047FF"/><stop offset="1" stop-color="#FFAF26"/></radialGradient><clipPath id="company-logo_svg__clip0_2_1010"><rect width="108" height="25" fill="white"/></clipPath></defs></svg>