<?xml version="1.0" encoding="UTF-8" standalone="no"?>
<!DOCTYPE svg PUBLIC "-//W3C//DTD SVG 1.1//EN" "http://www.w3.org/Graphics/SVG/1.1/DTD/svg11.dtd">
<svg width="100%" height="100%" viewBox="0 0 108 25" version="1.1" xmlns="http://www.w3.org/2000/svg" xmlns:xlink="http://www.w3.org/1999/xlink" xml:space="preserve" xmlns:serif="http://www.serif.com/" style="fill-rule:evenodd;clip-rule:evenodd;stroke-linejoin:round;stroke-miterlimit:2;">
    <g>
        <path d="M4.233,16.52C4.519,16.207 4.913,16.015 5.335,15.982C5.531,15.973 5.727,16.006 5.91,16.081C6.092,16.155 6.255,16.269 6.389,16.413C6.584,16.598 6.724,16.832 6.794,17.091C6.856,17.34 6.842,17.602 6.754,17.844C6.655,18.12 6.494,18.369 6.282,18.572L3.512,21.346L4.809,22.645L7.55,19.9C7.982,19.483 8.306,18.968 8.493,18.398C8.662,17.868 8.669,17.299 8.513,16.765C8.321,16.188 7.998,15.664 7.568,15.233C7.139,14.804 6.615,14.48 6.039,14.288C5.506,14.13 4.938,14.137 4.408,14.308C3.838,14.496 3.323,14.82 2.906,15.254L0.167,17.997L1.463,19.295L4.233,16.52Z" style="fill:url(#_Radial1);fill-rule:nonzero;"/>
        <path d="M14.097,0.463C13.519,0.159 12.875,0 12.221,0C11.568,0 10.924,0.159 10.345,0.463C9.77,0.764 9.286,1.214 8.944,1.767C8.613,2.307 8.433,2.926 8.425,3.56L8.425,10.14L10.259,10.14L10.259,6.851L10.349,6.901C10.927,7.205 11.571,7.364 12.225,7.364C12.878,7.364 13.522,7.205 14.1,6.901C14.677,6.6 15.163,6.15 15.508,5.597C15.855,5.019 16.039,4.358 16.039,3.684C16.039,3.009 15.855,2.348 15.508,1.77C15.162,1.217 14.675,0.766 14.097,0.463ZM13.934,4.712C13.77,5.011 13.527,5.259 13.231,5.429C12.926,5.601 12.581,5.692 12.231,5.692C11.881,5.692 11.536,5.601 11.231,5.429C10.935,5.259 10.692,5.011 10.528,4.712C10.36,4.395 10.272,4.042 10.272,3.683C10.272,3.324 10.36,2.971 10.528,2.654C10.692,2.354 10.935,2.105 11.231,1.935C11.536,1.763 11.881,1.672 12.231,1.672C12.581,1.672 12.926,1.763 13.231,1.935C13.527,2.105 13.77,2.354 13.934,2.654C14.102,2.971 14.19,3.324 14.19,3.683C14.19,4.042 14.102,4.395 13.934,4.712Z" style="fill:url(#_Radial2);fill-rule:nonzero;"/>
        <path d="M10.372,24.539C10.95,24.842 11.592,25 12.244,25C12.896,25 13.538,24.842 14.116,24.539C14.691,24.238 15.175,23.788 15.516,23.235C15.847,22.696 16.027,22.076 16.036,21.442L16.036,14.863L14.201,14.863L14.201,18.153L14.109,18.101C13.532,17.798 12.889,17.64 12.238,17.64C11.586,17.64 10.943,17.798 10.366,18.101C9.789,18.402 9.303,18.853 8.958,19.405C8.611,19.983 8.427,20.644 8.427,21.319C8.427,21.993 8.611,22.654 8.958,23.232C9.305,23.786 9.793,24.237 10.372,24.539ZM10.535,20.29C10.701,19.991 10.944,19.744 11.24,19.573C11.545,19.401 11.89,19.31 12.24,19.31C12.59,19.31 12.935,19.401 13.24,19.573C13.535,19.744 13.778,19.992 13.943,20.29C14.111,20.607 14.199,20.961 14.199,21.319C14.199,21.678 14.111,22.032 13.943,22.349C13.778,22.648 13.535,22.896 13.24,23.067C12.935,23.24 12.59,23.33 12.24,23.33C11.89,23.33 11.545,23.24 11.24,23.067C10.944,22.896 10.7,22.648 10.535,22.349C10.367,22.032 10.279,21.678 10.279,21.319C10.279,20.961 10.367,20.607 10.535,20.29Z" style="fill:url(#_Radial3);fill-rule:nonzero;"/>
        <rect x="0.325" y="11.583" width="9.934" height="1.837" style="fill:url(#_Radial4);fill-rule:nonzero;"/>
        <path d="M23.864,17.254C24.166,16.676 24.324,16.033 24.324,15.38C24.324,14.727 24.166,14.084 23.864,13.506C23.564,12.93 23.114,12.445 22.562,12.104C22.023,11.772 21.404,11.592 20.772,11.583L14.201,11.583L14.201,13.421L17.487,13.421L17.435,13.512C17.133,14.091 16.975,14.734 16.975,15.387C16.975,16.04 17.133,16.683 17.435,17.261C17.736,17.839 18.185,18.325 18.737,18.671C19.314,19.018 19.975,19.202 20.648,19.202C21.321,19.202 21.982,19.018 22.559,18.671C23.112,18.323 23.562,17.834 23.864,17.254ZM19.621,17.091C19.323,16.926 19.075,16.682 18.905,16.386C18.733,16.08 18.642,15.735 18.642,15.384C18.642,15.034 18.733,14.688 18.905,14.383C19.076,14.088 19.323,13.845 19.621,13.679C19.937,13.51 20.29,13.423 20.649,13.423C21.007,13.423 21.36,13.51 21.677,13.679C21.975,13.844 22.223,14.087 22.394,14.383C22.566,14.688 22.656,15.033 22.656,15.384C22.656,15.735 22.566,16.08 22.394,16.386C22.224,16.682 21.975,16.926 21.677,17.091C21.36,17.26 21.007,17.347 20.649,17.347C20.29,17.347 19.937,17.26 19.621,17.091Z" style="fill:url(#_Radial5);fill-rule:nonzero;"/>
        <path d="M23.145,5.228C22.799,4.676 22.314,4.226 21.737,3.924C21.159,3.62 20.515,3.461 19.861,3.461C19.207,3.461 18.563,3.62 17.984,3.924C17.409,4.226 16.926,4.676 16.584,5.228C16.241,5.807 16.06,6.468 16.06,7.142C16.06,7.815 16.241,8.476 16.584,9.055C16.925,9.608 17.409,10.059 17.984,10.359C18.563,10.663 19.207,10.822 19.861,10.822C20.515,10.822 21.159,10.663 21.737,10.359C22.314,10.058 22.8,9.608 23.145,9.055C23.492,8.477 23.676,7.816 23.676,7.142C23.676,6.467 23.492,5.806 23.145,5.228ZM21.571,8.172C21.407,8.471 21.163,8.719 20.868,8.889C20.563,9.061 20.218,9.151 19.868,9.151C19.517,9.151 19.173,9.061 18.868,8.889C18.572,8.719 18.329,8.471 18.165,8.172C17.997,7.855 17.909,7.501 17.909,7.142C17.909,6.784 17.997,6.43 18.165,6.113C18.329,5.814 18.572,5.565 18.868,5.394C19.173,5.222 19.517,5.132 19.868,5.132C20.218,5.132 20.563,5.222 20.868,5.394C21.164,5.565 21.407,5.814 21.571,6.113C21.739,6.43 21.827,6.784 21.827,7.142C21.827,7.501 21.739,7.855 21.571,8.172Z" style="fill:url(#_Radial6);fill-rule:nonzero;"/>
        <path d="M7.086,5.228C6.74,4.676 6.254,4.226 5.678,3.924C5.099,3.62 4.455,3.461 3.801,3.461C3.147,3.461 2.503,3.62 1.924,3.924C1.349,4.226 0.866,4.676 0.524,5.228C0.181,5.807 0,6.468 0,7.142C0,7.815 0.181,8.476 0.524,9.055C0.865,9.608 1.349,10.059 1.924,10.359C2.503,10.663 3.147,10.822 3.801,10.822C4.455,10.822 5.099,10.663 5.678,10.359C6.255,10.058 6.741,9.608 7.086,9.055C7.433,8.477 7.616,7.816 7.616,7.142C7.616,6.467 7.433,5.806 7.086,5.228ZM5.511,8.172C5.347,8.471 5.103,8.719 4.808,8.889C4.503,9.061 4.158,9.151 3.808,9.151C3.458,9.151 3.113,9.061 2.808,8.889C2.513,8.719 2.269,8.471 2.105,8.172C1.937,7.855 1.849,7.501 1.849,7.142C1.849,6.784 1.937,6.43 2.105,6.113C2.269,5.814 2.512,5.565 2.808,5.394C3.113,5.222 3.458,5.132 3.808,5.132C4.158,5.132 4.503,5.222 4.808,5.394C5.104,5.565 5.347,5.814 5.511,6.113C5.679,6.43 5.767,6.784 5.767,7.142C5.767,7.501 5.679,7.855 5.511,8.172Z" style="fill:url(#_Radial7);fill-rule:nonzero;"/>
        <path d="M85.016,14.004C84.707,14.005 84.4,13.942 84.116,13.817C83.833,13.692 83.579,13.509 83.37,13.28C83.162,13.05 83.004,12.78 82.908,12.485C82.811,12.191 82.777,11.88 82.809,11.571L82.809,5.603L80.002,5.603L80.002,11.496C79.953,12.169 80.048,12.845 80.282,13.478C80.516,14.111 80.883,14.686 81.358,15.165C81.833,15.644 82.406,16.015 83.037,16.254C83.668,16.492 84.343,16.593 85.016,16.548C85.688,16.59 86.361,16.488 86.99,16.248C87.619,16.008 88.189,15.636 88.662,15.158C89.135,14.679 89.501,14.105 89.734,13.473C89.966,12.842 90.061,12.168 90.012,11.496L90.012,5.603L87.205,5.603L87.205,11.571C87.237,11.878 87.204,12.188 87.108,12.481C87.012,12.774 86.856,13.044 86.65,13.273C86.444,13.502 86.192,13.685 85.911,13.811C85.629,13.937 85.325,14.003 85.016,14.004ZM34.089,7.886C33.319,7.946 32.6,8.294 32.076,8.861C31.552,9.428 31.261,10.172 31.261,10.945C31.261,11.717 31.552,12.461 32.076,13.028C32.6,13.595 33.319,13.943 34.089,14.004C34.859,13.943 35.578,13.595 36.103,13.028C36.627,12.461 36.918,11.717 36.918,10.945C36.918,10.172 36.627,9.428 36.103,8.861C35.578,8.294 34.859,7.946 34.089,7.886ZM28.271,10.954C28.283,10.203 28.443,9.462 28.743,8.773C29.042,8.084 29.474,7.461 30.015,6.939C30.555,6.418 31.193,6.008 31.893,5.734C32.592,5.46 33.338,5.326 34.089,5.341C34.84,5.326 35.587,5.46 36.286,5.734C36.985,6.008 37.624,6.418 38.164,6.939C38.705,7.461 39.137,8.084 39.436,8.773C39.736,9.462 39.896,10.203 39.908,10.954C39.896,11.705 39.736,12.446 39.436,13.135C39.137,13.824 38.705,14.447 38.164,14.969C37.624,15.49 36.985,15.9 36.286,16.174C35.587,16.448 34.84,16.582 34.089,16.567C33.024,16.567 31.978,16.283 31.058,15.744L31.058,20.795L28.271,20.795L28.271,10.954ZM72.799,7.886C72.189,7.867 71.587,8.031 71.07,8.357C70.553,8.682 70.145,9.155 69.899,9.713C69.652,10.272 69.578,10.892 69.685,11.493C69.793,12.094 70.078,12.65 70.503,13.088C70.928,13.527 71.474,13.829 72.072,13.955C72.669,14.081 73.291,14.026 73.857,13.797C74.423,13.567 74.908,13.174 75.25,12.668C75.591,12.162 75.774,11.565 75.774,10.954C75.784,10.153 75.477,9.381 74.919,8.806C74.362,8.231 73.6,7.9 72.799,7.886ZM66.962,10.954C66.962,9.411 67.575,7.931 68.666,6.84C69.757,5.748 71.237,5.135 72.78,5.135C74.324,5.135 75.804,5.748 76.895,6.84C77.986,7.931 78.599,9.411 78.599,10.954C78.587,11.705 78.427,12.446 78.127,13.135C77.828,13.824 77.396,14.447 76.855,14.969C76.315,15.49 75.676,15.9 74.977,16.174C74.278,16.448 73.531,16.582 72.78,16.567C71.72,16.57 70.679,16.286 69.768,15.744L69.768,20.795L66.962,20.795L66.962,10.954ZM59.89,7.886C59.28,7.871 58.679,8.038 58.165,8.366C57.651,8.694 57.246,9.168 57.002,9.727C56.758,10.286 56.687,10.905 56.797,11.505C56.906,12.105 57.193,12.659 57.619,13.096C58.045,13.532 58.591,13.832 59.188,13.957C59.785,14.081 60.406,14.025 60.971,13.795C61.536,13.565 62.02,13.172 62.36,12.666C62.701,12.16 62.883,11.564 62.883,10.954C62.888,10.152 62.577,9.379 62.017,8.805C61.456,8.231 60.692,7.9 59.89,7.886ZM54.071,10.954C54.071,9.411 54.684,7.931 55.775,6.84C56.867,5.748 58.347,5.135 59.89,5.135C61.433,5.135 62.913,5.748 64.004,6.84C65.095,7.931 65.708,9.411 65.708,10.954C65.696,11.705 65.536,12.446 65.237,13.135C64.937,13.824 64.505,14.447 63.964,14.969C63.424,15.49 62.786,15.9 62.086,16.174C61.387,16.448 60.641,16.582 59.89,16.567C58.824,16.567 57.778,16.283 56.859,15.744L56.859,20.795L54.071,20.795L54.071,10.954ZM102.005,7.886C101.394,7.867 100.792,8.031 100.275,8.357C99.758,8.682 99.351,9.155 99.104,9.713C98.857,10.272 98.783,10.892 98.891,11.493C98.998,12.094 99.283,12.65 99.708,13.088C100.133,13.527 100.68,13.829 101.277,13.955C101.875,14.081 102.496,14.026 103.063,13.797C103.629,13.567 104.114,13.174 104.455,12.668C104.796,12.162 104.979,11.565 104.979,10.954C104.984,10.155 104.676,9.385 104.119,8.812C103.563,8.238 102.804,7.905 102.005,7.886ZM107.823,10.954C107.823,12.497 107.21,13.977 106.119,15.068C105.028,16.16 103.548,16.773 102.005,16.773C100.461,16.773 98.981,16.16 97.89,15.068C96.799,13.977 96.186,12.497 96.186,10.954C96.186,9.411 96.799,7.931 97.89,6.84C98.981,5.748 100.461,5.135 102.005,5.135C103.548,5.135 105.028,5.748 106.119,6.84C107.21,7.931 107.823,9.411 107.823,10.954ZM46.98,7.886C46.37,7.871 45.77,8.038 45.256,8.366C44.741,8.694 44.336,9.168 44.093,9.727C43.849,10.286 43.777,10.905 43.887,11.505C43.997,12.105 44.283,12.659 44.709,13.096C45.135,13.532 45.682,13.832 46.279,13.957C46.876,14.081 47.497,14.025 48.062,13.795C48.627,13.565 49.11,13.172 49.451,12.666C49.792,12.16 49.974,11.564 49.974,10.954C49.979,10.556 49.905,10.161 49.757,9.791C49.61,9.422 49.39,9.085 49.112,8.8C48.835,8.515 48.503,8.287 48.137,8.131C47.771,7.974 47.378,7.891 46.98,7.886ZM52.818,10.954C52.788,12.469 52.159,13.911 51.068,14.963C49.978,16.015 48.514,16.592 46.999,16.567C46.248,16.582 45.501,16.448 44.802,16.174C44.103,15.9 43.465,15.49 42.924,14.969C42.384,14.447 41.951,13.824 41.652,13.135C41.353,12.446 41.192,11.705 41.18,10.954C41.192,10.203 41.353,9.462 41.652,8.773C41.951,8.084 42.384,7.461 42.924,6.939C43.465,6.418 44.103,6.008 44.802,5.734C45.501,5.46 46.248,5.326 46.999,5.341C48.514,5.316 49.978,5.893 51.068,6.945C52.159,7.997 52.788,9.439 52.818,10.954ZM94.783,1.169L91.995,1.169L91.995,16.286L94.783,16.286L94.783,1.169Z" style="fill:white;fill-rule:nonzero;"/>
    </g>
    <defs>
        <radialGradient id="_Radial1" cx="0" cy="0" r="1" gradientUnits="userSpaceOnUse" gradientTransform="matrix(-41.9186,1.98856,-3.74818,-79.011,38.9075,10.5023)"><stop offset="0" style="stop-color:rgb(41,41,41);stop-opacity:1"/><stop offset="0.36" style="stop-color:rgb(89,22,255);stop-opacity:1"/><stop offset="0.68" style="stop-color:rgb(240,71,255);stop-opacity:1"/><stop offset="1" style="stop-color:rgb(255,175,38);stop-opacity:1"/></radialGradient>
        <radialGradient id="_Radial2" cx="0" cy="0" r="1" gradientUnits="userSpaceOnUse" gradientTransform="matrix(-41.9186,1.98856,-3.74818,-79.011,38.9075,10.5023)"><stop offset="0" style="stop-color:rgb(41,41,41);stop-opacity:1"/><stop offset="0.36" style="stop-color:rgb(89,22,255);stop-opacity:1"/><stop offset="0.68" style="stop-color:rgb(240,71,255);stop-opacity:1"/><stop offset="1" style="stop-color:rgb(255,175,38);stop-opacity:1"/></radialGradient>
        <radialGradient id="_Radial3" cx="0" cy="0" r="1" gradientUnits="userSpaceOnUse" gradientTransform="matrix(-41.9186,1.98856,-3.74818,-79.011,38.9075,10.5023)"><stop offset="0" style="stop-color:rgb(41,41,41);stop-opacity:1"/><stop offset="0.36" style="stop-color:rgb(89,22,255);stop-opacity:1"/><stop offset="0.68" style="stop-color:rgb(240,71,255);stop-opacity:1"/><stop offset="1" style="stop-color:rgb(255,175,38);stop-opacity:1"/></radialGradient>
        <radialGradient id="_Radial4" cx="0" cy="0" r="1" gradientUnits="userSpaceOnUse" gradientTransform="matrix(-41.9186,1.98856,-3.74818,-79.011,38.9075,10.5023)"><stop offset="0" style="stop-color:rgb(41,41,41);stop-opacity:1"/><stop offset="0.36" style="stop-color:rgb(89,22,255);stop-opacity:1"/><stop offset="0.68" style="stop-color:rgb(240,71,255);stop-opacity:1"/><stop offset="1" style="stop-color:rgb(255,175,38);stop-opacity:1"/></radialGradient>
        <radialGradient id="_Radial5" cx="0" cy="0" r="1" gradientUnits="userSpaceOnUse" gradientTransform="matrix(-41.9186,1.98856,-3.74818,-79.011,38.9075,10.5023)"><stop offset="0" style="stop-color:rgb(41,41,41);stop-opacity:1"/><stop offset="0.36" style="stop-color:rgb(89,22,255);stop-opacity:1"/><stop offset="0.68" style="stop-color:rgb(240,71,255);stop-opacity:1"/><stop offset="1" style="stop-color:rgb(255,175,38);stop-opacity:1"/></radialGradient>
        <radialGradient id="_Radial6" cx="0" cy="0" r="1" gradientUnits="userSpaceOnUse" gradientTransform="matrix(-41.9186,1.98856,-3.74818,-79.011,38.9075,10.5023)"><stop offset="0" style="stop-color:rgb(41,41,41);stop-opacity:1"/><stop offset="0.36" style="stop-color:rgb(89,22,255);stop-opacity:1"/><stop offset="0.68" style="stop-color:rgb(240,71,255);stop-opacity:1"/><stop offset="1" style="stop-color:rgb(255,175,38);stop-opacity:1"/></radialGradient>
        <radialGradient id="_Radial7" cx="0" cy="0" r="1" gradientUnits="userSpaceOnUse" gradientTransform="matrix(-41.9186,1.98856,-3.74818,-79.011,38.9075,10.5023)"><stop offset="0" style="stop-color:rgb(41,41,41);stop-opacity:1"/><stop offset="0.36" style="stop-color:rgb(89,22,255);stop-opacity:1"/><stop offset="0.68" style="stop-color:rgb(240,71,255);stop-opacity:1"/><stop offset="1" style="stop-color:rgb(255,175,38);stop-opacity:1"/></radialGradient>
    </defs>
</svg>
