<svg xmlns="http://www.w3.org/2000/svg" width="30" height="30" viewBox="0 0 30 30">
<path fill="#778089" d="M15,26.25 C21.2132034,26.25 26.25,21.2132034 26.25,15 C26.25,8.78679656 21.2132034,3.75 15,3.75 C8.78679656,3.75 3.75,8.78679656 3.75,15 C3.75,21.2132034 8.78679656,26.25 15,26.25 Z M15,2.5 C21.9035594,2.5 27.5,8.09644063 27.5,15 C27.5,21.9035594 21.9035594,27.5 15,27.5 C8.09644063,27.5 2.5,21.9035594 2.5,15 C2.5,8.09644063 8.09644063,2.5 15,2.5 Z M15.6275573,10 L14.3775573,10 L14.375,15.6632213 L17.6542077,18.942429 L18.5380912,18.0585455 L15.6275573,15.1480116 L15.6275573,10 Z"/>
</svg>
