<svg xmlns="http://www.w3.org/2000/svg" width="50" height="50" viewBox="0 0 50 50">
<path fill="#435363" d="M25,37.3333333 C31.8115119,37.3333333 37.3333333,31.8115119 37.3333333,25 C37.3333333,18.1884881 31.8115119,12.6666667 25,12.6666667 C18.1884881,12.6666667 12.6666667,18.1884881 12.6666667,25 C12.6666667,31.8115119 18.1884881,37.3333333 25,37.3333333 Z M25,46.5833333 C13.0798542,46.5833333 3.41666667,36.9201458 3.41666667,25 C3.41666667,13.0798542 13.0798542,3.41666667 25,3.41666667 C36.9201458,3.41666667 46.5833333,13.0798542 46.5833333,25 C46.5833333,36.9201458 36.9201458,46.5833333 25,46.5833333 Z M25,34.25 C30.1086339,34.25 34.25,30.1086339 34.25,25 C34.25,19.8913661 30.1086339,15.75 25,15.75 C19.8913661,15.75 15.75,19.8913661 15.75,25 C15.75,30.1086339 19.8913661,34.25 25,34.25 Z"/>
</svg>
