<svg xmlns="http://www.w3.org/2000/svg" width="21" height="21" viewBox="0 0 21 21">
<path d="M10.4840972,0 C15.7144659,0 19.8918263,4.36231379 19.6599739,9.58643827 C19.6239184,10.3988433 18.5156824,10.5420413 18.2434684,9.8300241 L18.2117095,9.72761246 C18.1815748,9.6037713 18.0940703,9.41968304 17.9734167,9.25736883 C17.7534486,8.96144756 17.4787313,8.81894229 17.0983039,8.81894229 C16.6852558,8.81894229 16.3097032,8.99331363 15.9644134,9.33860344 C15.7774541,9.52556273 15.6254137,9.73347632 15.5508935,9.88251672 C15.2969877,10.3903283 14.6017376,10.4220665 14.2926637,9.97773139 L14.2362432,9.88251672 C14.161723,9.73347632 14.0096826,9.52556273 13.8227233,9.33860344 C13.4774335,8.99331363 13.1018809,8.81894229 12.6888328,8.81894229 C12.3733514,8.81894229 12.0804021,8.92046835 11.809005,9.11898807 L11.7067945,9.20001858 L11.7077643,16.8234569 L11.705501,17.0705519 C11.6562342,19.7194831 10.7654175,21 8.73086015,21 C6.56346468,21 5.75394587,19.9879842 5.75394587,17.4620053 C5.75394587,17.0561247 6.08297711,16.7270934 6.48885772,16.7270934 C6.86091495,16.7270934 7.16839736,17.0035711 7.21704316,17.3597093 L7.22374681,17.4586651 L7.22880444,17.8318681 C7.27068838,19.2428479 7.53178198,19.5301763 8.73086015,19.5301763 C9.76396884,19.5301763 10.1734755,18.9416142 10.2308793,17.2558301 L10.2362406,17.0393556 L10.2379507,16.821213 L10.2379507,10.2445733 L10.1759249,10.2211083 C10.0811114,10.1770818 9.995419,10.1121479 9.92474705,10.0279054 L9.85930042,9.93728599 L9.80517843,9.83414946 L9.75830811,9.69098776 C9.71746992,9.57735936 9.63336817,9.43515534 9.51763174,9.30288513 C9.23876846,8.98418425 8.84179155,8.81894229 8.27936162,8.81894229 C7.71693169,8.81894229 7.31995478,8.98418425 7.04109151,9.30288513 C6.93320131,9.42618822 6.85258809,9.55934062 6.81114621,9.66171825 L6.78759528,9.73209645 C6.62729374,10.3733026 5.79162949,10.4750939 5.4532463,9.94274352 L5.39893239,9.84219726 L5.34883696,9.69098776 C5.30799877,9.57735936 5.22389703,9.43515534 5.10816059,9.30288513 C4.82929732,8.98418425 4.43232041,8.81894229 3.86989048,8.81894229 C3.18605843,8.81894229 2.8770547,9.01968468 2.79843472,9.39516477 L2.78431555,9.48490404 L2.776722,9.58902924 C2.72600689,10.4143985 1.59639448,10.5149878 1.34929691,9.78884982 L1.32125613,9.68469709 L1.30861273,9.56601232 L1.30105487,9.31213178 C1.22417184,4.19444633 5.35975854,0 10.4840972,0 Z M10.4819415,1.46972573 L10.2331519,1.47385581 C6.73420413,1.58641756 3.76445875,4.04425692 2.97297682,7.4051347 L2.9584038,7.46856625 L3.04682372,7.44343832 C3.1103583,7.42772212 3.17552884,7.41392232 3.24242141,7.40203652 L3.44835134,7.37211871 L3.65821319,7.35478087 L3.86989048,7.34911857 C4.70349709,7.34911857 5.40567064,7.59653285 5.94731998,8.06863959 L6.07345019,8.1868201 C6.48121751,7.78606756 6.98823533,7.52416397 7.5887584,7.41120399 L7.81831304,7.37585722 L8.05793705,7.35516823 L8.27936162,7.34911857 C9.11296823,7.34911857 9.81514178,7.59653285 10.3567911,8.06863959 L10.5005119,8.2029498 L10.5544528,8.26129117 L10.6721095,8.15115785 C11.2018784,7.67720274 11.8124001,7.40214182 12.4851571,7.35604772 L12.6888328,7.34911857 C13.3640794,7.34911857 13.9814349,7.57465003 14.5265512,8.00157766 L14.7055615,8.15131288 L14.8660336,8.30336318 L14.8933724,8.33184271 L14.9250911,8.29928113 C15.4898676,7.7345046 16.1545955,7.40675123 16.8946283,7.35604772 L17.0983039,7.34911857 C17.3879235,7.34911857 17.6611676,7.39103852 17.9189755,7.47514946 L18.0172377,7.51168108 L17.9939482,7.40309365 C17.2422776,4.21787314 14.5201241,1.81622129 11.2225496,1.50451074 L10.9741744,1.4850715 L10.7266224,1.47352501 L10.4819415,1.46972573 Z"/>
</svg>
