<svg xmlns="http://www.w3.org/2000/svg" width="30" height="30" viewBox="0 0 30 30">
<path fill="#778089" d="M15,27.5 C8.09644064,27.5 2.5,21.9035595 2.5,15 C2.5,8.09644064 8.09644064,2.5 15,2.5 C21.9035595,2.5 27.5,8.09644064 27.5,15 C27.5,21.9035595 21.9035595,27.5 15,27.5 Z M15,26.25 C21.2132035,26.25 26.25,21.2132035 26.25,15 C26.25,8.78679658 21.2132035,3.75 15,3.75 C8.78679658,3.75 3.75,8.78679658 3.75,15 C3.75,21.2132035 8.78679658,26.25 15,26.25 Z M15.625,11.1430824 L15.625,21.25 L14.375,21.25 L14.375,11.1424515 L10.9463837,14.5710678 L10.0625002,13.6871843 L14.9996846,8.75 L19.9368689,13.6871843 L19.0529854,14.5710678 L15.625,11.1430824 Z"/>
</svg>
