<svg xmlns="http://www.w3.org/2000/svg" width="50" height="50" viewBox="0 0 50 50">
<path fill="#F3A800" d="M25.9638375,4.48097868 C26.2961569,4.66375437 26.5696561,4.93725357 26.7524318,5.269573 L46.286556,40.7861625 C46.8188688,41.7540039 46.4658031,42.9701191 45.4979617,43.5024318 C45.2026718,43.6648413 44.8711302,43.75 44.5341242,43.75 L5.46587578,43.75 C4.36130628,43.75 3.46587578,42.8545695 3.46587578,41.75 C3.46587578,41.4129941 3.55103448,41.0814525 3.71344396,40.7861625 L23.2475682,5.269573 C23.7798809,4.30173163 24.9959961,3.94866593 25.9638375,4.48097868 Z M26.0416667,33.3333333 L23.9583333,33.3333333 L23.9583333,37.5 L26.0416667,37.5 L26.0416667,33.3333333 Z M26.0416667,16.6666667 L23.9583333,16.6666667 L23.9583333,31.25 L26.0416667,31.25 L26.0416667,16.6666667 Z"/>
</svg>
