<?xml version="1.0" encoding="UTF-8" standalone="no"?>
<!DOCTYPE svg PUBLIC "-//W3C//DTD SVG 1.1//EN" "http://www.w3.org/Graphics/SVG/1.1/DTD/svg11.dtd">
<svg width="100%" height="100%" viewBox="0 0 37 32" version="1.1" xmlns="http://www.w3.org/2000/svg" xmlns:xlink="http://www.w3.org/1999/xlink" xml:space="preserve" xmlns:serif="http://www.serif.com/" style="fill-rule:evenodd;clip-rule:evenodd;stroke-linejoin:round;stroke-miterlimit:2;">
    <g transform="matrix(1,0,0,1,-1.98322,-5.84326)">
        <g transform="matrix(1,0,0,1,-101.868,0.0925403)">
            <g transform="matrix(0.400275,0,0,0.400275,101.845,-379.859)">
                <g id="bar_3" transform="matrix(2.49828,0,0,2.49828,0.0574605,948.764)">
                    <path d="M19.991,5.843C13.332,5.843 7.224,8.073 2.454,11.685C1.944,12.061 1.827,12.872 2.21,13.377C2.593,13.882 3.405,13.988 3.905,13.599C8.268,10.295 13.869,8.245 19.991,8.245C26.112,8.245 31.714,10.295 36.077,13.599C36.577,13.988 37.389,13.882 37.772,13.377C38.155,12.872 38.038,12.061 37.528,11.685C32.758,8.073 26.65,5.843 19.991,5.843Z" style="fill:rgb(239,243,246);fill-rule:nonzero;" id="wifi-bar-3"/>
                </g>
                <g id="bar_2" transform="matrix(2.49828,0,0,2.49828,0.0574605,948.764)">
                    <path d="M19.991,13.448C15.203,13.448 10.722,14.898 7.232,17.714C6.682,18.084 6.551,18.947 6.967,19.464C7.383,19.98 8.254,20.036 8.733,19.578C11.755,17.139 15.687,15.85 19.991,15.85C24.295,15.85 28.226,17.139 31.248,19.578C31.728,20.036 32.599,19.98 33.014,19.464C33.43,18.947 33.299,18.084 32.75,17.714C29.26,14.898 24.779,13.448 19.991,13.448Z" style="fill:rgb(239,243,246);fill-rule:nonzero;" id="wifi-bar-2"/>
                </g>
                <g id="bar_1" transform="matrix(2.49828,0,0,2.49828,0.0574605,951.262)">
                    <path d="M19.991,20.653C17.032,20.653 14.212,21.581 12.035,23.306C11.541,23.699 11.448,24.507 11.841,25C12.234,25.496 13.042,25.588 13.536,25.196C15.252,23.835 17.54,23.054 19.991,23.054C22.442,23.054 24.729,23.835 26.445,25.196C26.94,25.588 27.747,25.496 28.14,25C28.533,24.507 28.441,23.699 27.946,23.306C25.769,21.581 22.95,20.653 19.991,20.653Z" style="fill:rgb(239,243,246);fill-rule:nonzero;" id="wifi-bar-1"/>
                </g>
                <g transform="matrix(2.49828,0,0,2.49828,0.0574605,948.764)">
                    <path d="M19.991,28.258C17.573,28.258 15.588,30.243 15.588,32.661C15.588,35.079 17.573,37.064 19.991,37.064C22.408,37.064 24.394,35.079 24.394,32.661C24.394,30.243 22.408,28.258 19.991,28.258ZM19.991,30.66C21.11,30.66 21.992,31.544 21.992,32.661C21.992,33.782 21.11,34.662 19.991,34.662C18.871,34.662 17.989,33.782 17.989,32.661C17.989,31.544 18.871,30.66 19.991,30.66Z" style="fill:rgb(239,243,246);fill-rule:nonzero;" id="wifi-base"/>
                </g>
            </g>
        </g>
    </g>
</svg>
