<svg width="100%" height="100%" viewBox="0 0 41 41" version="1.1" xmlns="http://www.w3.org/2000/svg" xmlns:xlink="http://www.w3.org/1999/xlink" xml:space="preserve" xmlns:serif="http://www.serif.com/" style="fill-rule:evenodd;clip-rule:evenodd;stroke-linejoin:round;stroke-miterlimit:2;">
    <g id="Artboard1" transform="matrix(1,0,0,1,-101.868,0.0925403)">
        <rect x="101.868" y="-0.093" width="40.021" height="40.021" style="fill:none;"/>
        <g transform="matrix(0.400275,0,0,0.400275,101.845,-379.859)">
            <path d="M50,963.362C33.364,963.362 18.104,968.933 6.188,977.956C4.913,978.896 4.621,980.921 5.578,982.183C6.535,983.445 8.563,983.711 9.813,982.737C20.713,974.483 34.707,969.362 50,969.362C65.293,969.362 79.287,974.483 90.188,982.737C91.437,983.711 93.465,983.445 94.422,982.183C95.379,980.921 95.087,978.896 93.813,977.956C81.896,968.933 66.636,963.362 50,963.362ZM50,982.362C38.038,982.362 26.844,985.984 18.125,993.018C16.751,993.943 16.424,996.099 17.463,997.39C18.502,998.68 20.678,998.82 21.875,997.675C29.425,991.583 39.248,988.362 50,988.362C60.752,988.362 70.575,991.583 78.125,997.675C79.322,998.82 81.498,998.68 82.537,997.39C83.576,996.099 83.249,993.943 81.875,993.018C73.156,985.984 61.962,982.362 50,982.362ZM50,1000.36C42.607,1000.36 35.564,1002.68 30.125,1006.99C28.889,1007.97 28.658,1009.99 29.64,1011.22C30.622,1012.46 32.64,1012.69 33.875,1011.71C38.162,1008.31 43.877,1006.36 50,1006.36C56.123,1006.36 61.838,1008.31 66.125,1011.71C67.36,1012.69 69.378,1012.46 70.36,1011.22C71.342,1009.99 71.111,1007.97 69.875,1006.99C64.436,1002.68 57.393,1000.36 50,1000.36ZM50,1019.36C43.96,1019.36 39,1024.32 39,1030.36C39,1036.4 43.96,1041.36 50,1041.36C56.04,1041.36 61,1036.4 61,1030.36C61,1024.32 56.04,1019.36 50,1019.36ZM50,1025.36C52.797,1025.36 55,1027.57 55,1030.36C55,1033.16 52.797,1035.36 50,1035.36C47.203,1035.36 45,1033.16 45,1030.36C45,1027.57 47.203,1025.36 50,1025.36Z" style="fill-rule:nonzero;"/>
        </g>
    </g>
</svg>
